#define disk_width 9
#define disk_height 9
static unsigned char disk_bits[] = {
   0xfe, 0x00, 0x83, 0x01, 0x01, 0x01, 0x83, 0x01, 0x7d, 0x01, 0x01, 0x01,
   0x01, 0x01, 0x83, 0x01, 0xfe, 0x00 };
